<svg xmlns="http://www.w3.org/2000/svg" xmlns:xlink="http://www.w3.org/1999/xlink" width="150px" height="150px" version="1.1" viewBox="250 170 200 200" fill="white">
 <g>
  <path d="m350 276.64c-10.078 0-17.922 7.2812-17.922 16.801 0 9.5195 7.8398 16.801 17.922 16.801 10.078 0 17.922-7.8398 17.922-16.801 0-9.5195-7.8438-16.801-17.922-16.801"/>
  <path d="m350 316.96c-13.441 0-24.078-10.641-24.078-23.52s10.641-23.52 24.078-23.52c13.441 0 24.078 10.641 24.078 23.52s-10.637 23.52-24.078 23.52m67.762-52.082v-50.961h-19.602v15.121l-30.238-54.32h-9.5195v27.441h-16.801v-27.441h-9.5195l-45.359 81.762h0.55859c-6.7188 10.641-11.199 23.52-11.199 37.52 0 39.199 33.039 71.121 73.922 71.121 40.879 0 73.922-31.922 73.922-71.121-0.003906-10.641-2.2461-20.16-6.1641-29.121"/>
 </g>
</svg>