<svg version="1.2" xmlns="http://www.w3.org/2000/svg" viewBox="0 0 32 32" width="32" height="32">
	<title>GluonLogo_r-svg</title>
	<style>
		.s0 { fill: #000000 } 
	</style>
	<filter id="f0">
		<feFlood flood-color="#ffffff" flood-opacity="1" />
		<feBlend mode="normal" in2="SourceGraphic"/>
		<feComposite in2="SourceAlpha" operator="in" />
	</filter>
	<g id="Layer" filter="url(#f0)">
		<path id="Layer" fill-rule="evenodd" class="s0" d="m15.7 2.2c0.3 0 0.5 0 0.8 0.1 0.1 0.1 10.4 6 10.5 6.1 0.3 0.2 0.5 0.5 0.7 0.8 0.2 0.4 0.2 0.3 0.2 2.6v2h0.1c0 0 0.3 0.1 0.5 0.1 2.1 0.5 3.3 1.4 3.5 2.5 0 0.3 0 0.6-0.1 0.9-0.2 0.6-0.6 1.1-1.2 1.7l-0.2 0.2 0.4 0.4c0.4 0.5 0.6 0.7 0.8 1.1 0.2 0.4 0.3 0.6 0.3 0.9 0 0.3-0.1 0.6-0.2 0.8-0.5 1.3-2.6 2.2-6 2.5-1 0.1-1.5 0.1-2.7 0.1-2.2 0-3.8-0.1-6.3-0.4l-0.8-0.2-0.7 0.1c-2.5 0.4-4.2 0.5-6.4 0.5-1.5 0-2.4 0-3.6-0.2-3.5-0.4-5.4-1.6-5.3-3.2 0.1-0.7 0.5-1.4 1.2-2.1l0.3-0.3-0.4-0.4c-0.4-0.4-0.6-0.7-0.8-1.1-0.2-0.3-0.3-0.6-0.3-0.9 0-1.2 1-2.2 3-2.7l0.4-0.1v-2.2c0-2 0-2.1 0.1-2.3 0.1-0.4 0.3-0.8 0.7-1 0-0.1 2.5-1.5 5.4-3.1 5.4-3.1 5.4-3.2 5.7-3.2 0.1 0 0.3 0 0.4 0zm-0.5 6c-1.3 0.2-2.2 0.7-2.8 1.5q-0.9 1.3-0.9 4.3 0 2.9 0.9 4.2c0.5 0.9 1.4 1.4 2.5 1.6 0.6 0.1 1.5 0.1 2 0 0.9-0.2 2-0.6 2.6-1l0.2-0.1v-4.4h-2.6v3l-0.1 0.1c-0.4 0.1-0.5 0.1-1 0.1-0.3 0-0.4 0-0.6 0q-0.4-0.2-0.7-0.6c-0.4-0.5-0.5-1.1-0.5-2.6q-0.1-2 0.2-2.8c0.3-0.7 0.8-1 1.7-1 0.5 0 1.1 0.2 1.5 0.4 0.1 0 0.2 0.1 0.2 0 0 0 1.1-2 1.1-2 0 0-0.6-0.3-0.8-0.4-0.3-0.1-0.8-0.2-1.1-0.3-0.4 0-1.4 0-1.8 0zm12.8 6.3h-0.1v3.1l0.3 0.1q0.6 0.4 1.3 0.8l0.4 0.3 0.1-0.1c0.5-0.4 0.9-0.9 1.1-1.3 0.3-0.6 0.2-1.1-0.2-1.6-0.5-0.5-1.4-0.9-2.5-1.2-0.2 0-0.4-0.1-0.4-0.1zm-24.6 0.2c-0.1 0-0.8 0.2-1 0.3-0.9 0.4-1.5 0.8-1.6 1.4-0.1 0.2-0.1 0.5 0 0.8 0.1 0.2 0.2 0.4 0.4 0.7 0.1 0.2 0.5 0.6 0.7 0.8l0.2 0.1 0.4-0.3c0.2-0.1 0.5-0.3 0.6-0.4l0.3-0.2v-1.6c0-1.5 0-1.6 0-1.6zm24.6 3.7l-0.1-0.1v1.8l0.2-0.1c0.3-0.2 0.7-0.4 1-0.6 0.2-0.2 0.2-0.2 0.2-0.2 0-0.1-0.6-0.4-0.9-0.6-0.1-0.1-0.3-0.2-0.4-0.2zm-24.6 0.8v-0.5l-0.3 0.2c-0.2 0.1-0.4 0.2-0.4 0.3h-0.1l0.3 0.2c0.2 0.1 0.5 0.3 0.5 0.3 0 0 0-0.2 0-0.5zm-1.3 0.4c0 0-0.2 0.2-0.3 0.3q-1 0.9-1.1 1.7c0 0.2 0 0.4 0.1 0.6 0.1 0.2 0.2 0.3 0.3 0.5 0.3 0.2 0.5 0.4 1 0.6 0.5 0.2 1.1 0.4 1.8 0.6 0.5 0.1 1.2 0.2 1.3 0.2 0 0-0.2-0.1-0.5-0.3-0.3-0.1-0.5-0.3-0.6-0.4-0.3-0.2-0.5-0.6-0.6-1-0.1-0.1-0.1-0.2-0.1-0.7 0-0.3 0-0.5 0-0.5 0 0 0.1 0 0.2 0.1 0.3 0.1 1.2 0.6 1.7 0.8 1.7 0.8 3.9 1.5 6 2l0.5 0.2 0.4-0.1c0.6 0 1.5-0.1 1.6-0.1q0-0.1-0.2-0.1c-1.3-0.3-3.3-0.8-4.7-1.2-2.7-0.9-5.1-2-6.6-3-0.1-0.1-0.2-0.2-0.2-0.2zm28 0.2l-0.2-0.2-0.2 0.2c-2.4 1.7-6.7 3.3-11.3 4.2q-0.2 0-0.2 0.1c0.1 0 1 0.1 1.7 0.1l0.3 0.1 0.4-0.1c2.4-0.6 4.9-1.5 6.9-2.5 0.2-0.1 0.4-0.1 0.4-0.1 0 0 0 0.6-0.1 0.8 0 0.2-0.2 0.6-0.4 0.8-0.1 0.2-0.3 0.3-0.9 0.7-0.4 0.2-0.6 0.3-0.6 0.3q0 0 0.1 0c2.5-0.3 4.1-0.8 4.9-1.5 0.4-0.5 0.5-0.9 0.3-1.5-0.1-0.3-0.3-0.7-0.7-1.1-0.2-0.1-0.4-0.3-0.4-0.3z"/>
		<path id="Layer" class="s0" d="m16.4 25.2c1.8 0.3 3.9 0.4 5.8 0.5 0.5 0 0.9 0 1 0 0 0-0.2 0.2-3.3 1.9-1.8 1.1-3.4 2-3.4 2-0.5 0.3-1 0.3-1.5 0.1-0.1 0-1.1-0.6-3.6-2-1.8-1.1-3.4-2-3.4-2 0 0 0.5 0 1 0 1.4 0 2.3 0 3.7-0.2 1-0.1 2.1-0.2 2.9-0.3 0.4-0.1 0.4-0.1 0.8 0z"/>
	</g>
</svg>